<svg width="1397" height="1480" viewBox="0 0 1397 1480" fill="none" xmlns="http://www.w3.org/2000/svg">
<g opacity="0.6">
<g filter="url(#filter0_f_188_2432)">
<path d="M569.071 942.292C704.735 1055.72 1010.55 925.866 1057.18 772.536C1057.99 769.867 1058.14 767.149 1057.73 764.389C1035.95 617.219 1018.39 351.397 779.486 290.761C565.71 236.503 639.162 295.961 603.528 434.121C550.164 641.025 432.22 827.867 569.071 942.292Z" fill="#9FC4FC"/>
</g>
<g opacity="0.6" filter="url(#filter1_f_188_2432)">
<path d="M542.399 1056.71C573.313 1060.42 749.988 1080.19 797.573 1053.55C800.052 1052.16 801.817 1050.03 803.447 1047.7C838.213 998.02 1030.19 885.196 787.438 696.035C476.505 453.739 384.83 741.893 383.213 846.131C381.747 940.546 509.737 1036.22 533.871 1053.42C536.422 1055.23 539.289 1056.34 542.399 1056.71Z" fill="#A7FFDA"/>
</g>
<g opacity="0.6" filter="url(#filter2_f_188_2432)">
<path d="M649.996 449.735C638.994 481.495 588.023 634.38 606.591 689.27C607.286 691.325 608.385 693.001 609.735 694.699C652.376 748.341 727.875 986.955 963.047 849.698C1261.7 675.389 992.659 451.664 889.447 400.197C798.189 354.692 682.711 423.831 657.185 440.457C653.761 442.688 651.334 445.873 649.996 449.735Z" fill="#F9FCFF"/>
</g>
<g filter="url(#filter3_f_188_2432)">
<path d="M573.734 1278.46C725.971 1289.92 982.732 1065.31 996.183 941.811C996.619 937.804 995.535 933.953 993.437 930.511C940.035 842.887 863.083 680.066 626.564 750.711C412.651 814.604 495.282 819.566 492.561 927.288C488.484 1088.61 418.965 1266.81 573.734 1278.46Z" fill="#FFFCF9" fill-opacity="0.5"/>
</g>
</g>
<defs>
<filter id="filter0_f_188_2432" x="405.292" y="170.841" width="752.656" height="914.464" filterUnits="userSpaceOnUse" color-interpolation-filters="sRGB">
<feFlood flood-opacity="0" result="BackgroundImageFix"/>
<feBlend mode="normal" in="SourceGraphic" in2="BackgroundImageFix" result="shape"/>
<feGaussianBlur stdDeviation="50" result="effect1_foregroundBlur_188_2432"/>
</filter>
<filter id="filter1_f_188_2432" x="283.2" y="501.583" width="725.146" height="665.665" filterUnits="userSpaceOnUse" color-interpolation-filters="sRGB">
<feFlood flood-opacity="0" result="BackgroundImageFix"/>
<feBlend mode="normal" in="SourceGraphic" in2="BackgroundImageFix" result="shape"/>
<feGaussianBlur stdDeviation="50" result="effect1_foregroundBlur_188_2432"/>
</filter>
<filter id="filter2_f_188_2432" x="502.559" y="284.933" width="697.083" height="706.752" filterUnits="userSpaceOnUse" color-interpolation-filters="sRGB">
<feFlood flood-opacity="0" result="BackgroundImageFix"/>
<feBlend mode="normal" in="SourceGraphic" in2="BackgroundImageFix" result="shape"/>
<feGaussianBlur stdDeviation="50" result="effect1_foregroundBlur_188_2432"/>
</filter>
<filter id="filter3_f_188_2432" x="373.498" y="633.407" width="722.78" height="745.475" filterUnits="userSpaceOnUse" color-interpolation-filters="sRGB">
<feFlood flood-opacity="0" result="BackgroundImageFix"/>
<feBlend mode="normal" in="SourceGraphic" in2="BackgroundImageFix" result="shape"/>
<feGaussianBlur stdDeviation="50" result="effect1_foregroundBlur_188_2432"/>
</filter>
</defs>
</svg>
