<svg width="1182" height="1269" viewBox="0 0 1182 1269" fill="none" xmlns="http://www.w3.org/2000/svg">
<g opacity="0.6">
<g filter="url(#filter0_f_188_2712)">
<path d="M951.204 667.644C899.13 790.456 790.468 845.514 773.305 853.585C771.731 854.326 770.391 854.734 768.664 854.948C735.5 859.052 362.086 895.89 472.265 457.194C538.347 194.078 753.211 145.175 874.831 275.654C996.451 406.133 997.001 559.638 951.204 667.644Z" fill="#A7FFDA" fill-opacity="0.6"/>
</g>
<g filter="url(#filter1_f_188_2712)">
<path d="M554.79 546.183C666.917 639.922 781.851 839.764 721.514 933.282C719.178 936.902 715.562 939.335 711.453 940.625C618.605 969.779 388.197 1080.49 266.29 871.683C168.224 703.709 222.855 577.676 236.48 551.295C238.255 547.857 241.11 545.316 244.656 543.768C277.321 529.506 451.476 459.813 554.79 546.183Z" fill="#FFB6FB"/>
</g>
<g filter="url(#filter2_f_188_2712)">
<path d="M725.33 762.714C725.33 882.913 609.278 941.835 587.003 952.037C584.58 953.147 582.102 953.645 579.44 953.527C549.025 952.175 348.975 936.698 289.586 762.713C213.32 539.286 514.861 566.901 546.217 570.35C548.085 570.556 549.622 570.995 551.331 571.778C572.804 581.618 725.331 655.288 725.33 762.714Z" fill="#FFFCF9" fill-opacity="0.5"/>
</g>
<g filter="url(#filter3_f_188_2712)">
<path d="M442.82 693.473C493.607 549.844 673.77 307.895 735.947 326.022C737.698 326.532 739.151 327.471 740.572 328.615C795.162 372.556 962.165 491.18 856.27 707.128C724.194 976.468 743.666 896.136 620.864 934.325C617.218 935.459 613.236 935.655 609.578 934.561C574.154 923.966 384.365 858.792 442.82 693.473Z" fill="#FFFCF9" fill-opacity="0.5"/>
</g>
</g>
<defs>
<filter id="filter0_f_188_2712" x="351.998" y="106.065" width="727.237" height="851.32" filterUnits="userSpaceOnUse" color-interpolation-filters="sRGB">
<feFlood floodOpacity="0" result="BackgroundImageFix"/>
<feBlend mode="normal" in="SourceGraphic" in2="BackgroundImageFix" result="shape"/>
<feGaussianBlur stdDeviation="50" result="effect1_foregroundBlur_188_2712"/>
</filter>
<filter id="filter1_f_188_2712" x="109.013" y="403.694" width="729.133" height="692.353" filterUnits="userSpaceOnUse" color-interpolation-filters="sRGB">
<feFlood floodOpacity="0" result="BackgroundImageFix"/>
<feBlend mode="normal" in="SourceGraphic" in2="BackgroundImageFix" result="shape"/>
<feGaussianBlur stdDeviation="50" result="effect1_foregroundBlur_188_2712"/>
</filter>
<filter id="filter2_f_188_2712" x="177.268" y="467.483" width="648.063" height="586.061" filterUnits="userSpaceOnUse" color-interpolation-filters="sRGB">
<feFlood floodOpacity="0" result="BackgroundImageFix"/>
<feBlend mode="normal" in="SourceGraphic" in2="BackgroundImageFix" result="shape"/>
<feGaussianBlur stdDeviation="50" result="effect1_foregroundBlur_188_2712"/>
</filter>
<filter id="filter3_f_188_2712" x="331.722" y="225.059" width="658.997" height="810.228" filterUnits="userSpaceOnUse" color-interpolation-filters="sRGB">
<feFlood floodOpacity="0" result="BackgroundImageFix"/>
<feBlend mode="normal" in="SourceGraphic" in2="BackgroundImageFix" result="shape"/>
<feGaussianBlur stdDeviation="50" result="effect1_foregroundBlur_188_2712"/>
</filter>
</defs>
</svg>
