<svg width="14" height="14" viewBox="0 0 14 14" fill="none" xmlns="http://www.w3.org/2000/svg">
<path d="M1.43151 4.63119C1.5956 4.46715 1.81812 4.375 2.05014 4.375C2.28216 4.375 2.50467 4.46715 2.66876 4.63119L7.00001 8.96244L11.3313 4.63119C11.4963 4.4718 11.7173 4.3836 11.9467 4.3856C12.1762 4.38759 12.3956 4.47961 12.5579 4.64185C12.7201 4.80408 12.8121 5.02354 12.8141 5.25296C12.8161 5.48238 12.7279 5.70341 12.5685 5.86844L7.61864 10.8183C7.45455 10.9823 7.23203 11.0745 7.00001 11.0745C6.76799 11.0745 6.54547 10.9823 6.38139 10.8183L1.43151 5.86844C1.26747 5.70435 1.17532 5.48183 1.17532 5.24981C1.17532 5.01779 1.26747 4.79527 1.43151 4.63119Z" fill="#323232"/>
</svg>
