<svg width="64" height="12" viewBox="0 0 64 12" fill="none" xmlns="http://www.w3.org/2000/svg">
<path d="M64 6.34951C64 7.08947 63.4002 7.68932 62.6602 7.68932L6.41551 7.68932L8.09926 8.76117C8.33067 8.90673 8.55419 9.04938 8.75931 9.18149C9.3527 9.56364 9.51368 10.355 9.12691 10.9454C8.74302 11.5314 7.96366 11.7044 7.37028 11.332C5.16441 9.94776 0.282279 6.87487 0.0383041 6.64078C-0.193212 6.40777 0.564476 5.73204 3.97407 3.16893C5.17514 2.26231 6.28558 1.44349 7.07617 0.865382C7.70828 0.40316 8.59923 0.605721 8.97525 1.29261C9.29207 1.87134 9.12678 2.59543 8.59268 2.9828C8.28011 3.2095 7.92231 3.47041 7.57309 3.72816L5.80515 5.00971L62.6602 5.00971C63.4001 5.00971 64 5.60956 64 6.34951Z" fill="#323232" fill-opacity="0.5"/>
</svg>
