<svg width="20" height="20" viewBox="0 0 20 20" fill="none" xmlns="http://www.w3.org/2000/svg">
<g clip-path="url(#clip0_26_1873)">
<path d="M9.74976 0.0664062C9.68335 0.0976562 9.32788 0.359375 8.94897 0.640625L8.26929 1.15234L9.13257 1.16406C9.60913 1.16797 10.3904 1.16797 10.8669 1.16406L11.7302 1.15234L11.0466 0.640625C10.6716 0.355469 10.3083 0.0976562 10.2419 0.0625C10.0896 -0.015625 9.89819 -0.015625 9.74976 0.0664062Z" fill="#323232" fill-opacity="0.5"/>
<path d="M2.68726 2.42578C2.59741 2.47266 2.50757 2.5625 2.46069 2.65625C2.38257 2.80469 2.38257 2.87891 2.38257 6.50391V10.1953L6.19116 12.0977L10.0037 14.0039L13.8083 12.0977L17.6169 10.1953V6.50391C17.6169 2.87891 17.6169 2.80469 17.5388 2.65625C17.488 2.55469 17.406 2.47266 17.3044 2.42188C17.1521 2.34375 17.0935 2.34375 9.99194 2.34375C2.94116 2.34766 2.82788 2.34766 2.68726 2.42578ZM13.7888 5.9375C13.9646 6.02734 14.1013 6.25 14.1013 6.44531C14.1013 6.64062 13.9646 6.86328 13.7888 6.95312C13.6404 7.03125 13.5662 7.03125 9.99585 7.03125H6.35913L6.20288 6.94531C5.80835 6.72266 5.80444 6.1875 6.19507 5.95312L6.34741 5.85938H9.99194C13.5662 5.85938 13.6404 5.85938 13.7888 5.9375ZM10.2732 8.28125C10.449 8.37109 10.5857 8.59375 10.5857 8.78906C10.5857 8.98438 10.449 9.20703 10.2732 9.29688C10.1248 9.37109 10.0466 9.375 8.23804 9.375C6.36304 9.375 6.35913 9.375 6.20288 9.28906C5.80835 9.06641 5.80444 8.53125 6.19507 8.29688L6.34741 8.20312H8.23413C10.0466 8.20312 10.1248 8.20703 10.2732 8.28125Z" fill="#323232" fill-opacity="0.5"/>
<path d="M0.65613 6.83594C0.28113 7.11328 0.105349 7.26562 0.0623803 7.36328C0.00769279 7.47266 -0.00011971 7.61719 0.00769279 8.26172L0.0194115 9.02734L0.617068 9.31641L1.21082 9.60547V8.02344C1.21082 7.15625 1.20691 6.44531 1.1991 6.44531C1.19519 6.44531 0.949099 6.62109 0.65613 6.83594Z" fill="#323232" fill-opacity="0.5"/>
<path d="M18.7888 8.02344C18.7888 8.89453 18.7966 9.60938 18.8083 9.60938C18.8201 9.60938 19.0935 9.47656 19.4138 9.31641L19.9998 9.02344V8.26172C19.9998 7.625 19.988 7.48047 19.9333 7.35937C19.8826 7.25781 19.7263 7.11719 19.3748 6.85937C19.1052 6.66016 18.863 6.48828 18.8396 6.46875C18.8005 6.44531 18.7888 6.76953 18.7888 8.02344Z" fill="#323232" fill-opacity="0.5"/>
<path d="M-0.000244141 14.9414C-0.000244141 19.375 0.00366211 19.5391 0.0739746 19.6797C0.116943 19.7656 0.210693 19.8594 0.304443 19.9141L0.460693 20H9.99585C19.4802 20 19.5349 20 19.6873 19.9219C19.7888 19.8711 19.8708 19.7891 19.9216 19.6875C19.9998 19.5352 19.9998 19.4688 19.9998 14.9414C19.9998 12.418 19.9841 10.3516 19.9685 10.3516C19.9529 10.3516 17.7341 11.4492 15.0427 12.793C11.1521 14.7344 10.1169 15.2344 9.99976 15.2344C9.88257 15.2344 8.85132 14.7344 4.9646 12.793C2.27319 11.4492 0.0583496 10.3516 0.0388184 10.3516C0.0153809 10.3516 -0.000244141 12.0625 -0.000244141 14.9414Z" fill="#323232" fill-opacity="0.5"/>
</g>
<defs>
<clipPath id="clip0_26_1873">
<rect width="20" height="20" fill="white" transform="translate(-0.000244141)"/>
</clipPath>
</defs>
</svg>
