<svg width="20" height="20" viewBox="0 0 20 20" fill="none" xmlns="http://www.w3.org/2000/svg">
<g clip-path="url(#clip0_48_833)">
<path d="M9.04277 0.0429249C5.91777 0.367144 3.17949 2.06636 1.51543 4.7148C-0.843949 8.46871 -0.398637 13.4531 2.58574 16.6992C4.24589 18.5039 6.30058 19.5781 8.76933 19.9296C9.23418 19.9961 10.7693 19.9921 11.2498 19.9257C13.6795 19.5898 15.7342 18.5195 17.3904 16.7226C18.7537 15.2461 19.6248 13.3554 19.9295 11.2304C19.9959 10.7695 19.9959 9.23043 19.9295 8.76949C19.699 7.14449 19.1834 5.76558 18.3279 4.47652C17.9686 3.92964 17.6053 3.48433 17.0975 2.97261C15.5389 1.39449 13.6092 0.421831 11.3865 0.0937061C10.9061 0.0233936 9.51933 -0.00785637 9.04277 0.0429249ZM10.4295 3.83199C10.7107 3.95699 10.8436 4.08589 10.9725 4.3398L11.0936 4.58199V8.33589V12.0898L10.9998 12.2851C10.8123 12.6914 10.4412 12.9296 9.9998 12.9296C9.55839 12.9296 9.1873 12.6914 8.9998 12.2851L8.90605 12.0898V8.3398C8.90605 4.65621 8.90996 4.58589 8.98808 4.41402C9.11308 4.13277 9.24199 3.99996 9.49589 3.87105C9.79668 3.71871 10.1521 3.70699 10.4295 3.83199ZM10.6717 14.2578C10.8436 14.3046 11.035 14.5156 11.0896 14.7148C11.1521 14.9336 11.1404 15.8476 11.0779 16.0273C10.9568 16.3671 10.785 16.4531 10.1912 16.4765C9.40605 16.5078 9.14433 16.4336 8.96855 16.1328C8.89824 16.0156 8.88261 15.914 8.87089 15.4687C8.85527 14.789 8.89824 14.582 9.10136 14.3984C9.20683 14.3046 9.30058 14.2578 9.42168 14.2421C9.51543 14.2304 9.63261 14.2109 9.6873 14.2031C9.83183 14.1757 10.5076 14.2148 10.6717 14.2578Z" fill="#323232"/>
</g>
<defs>
<clipPath id="clip0_48_833">
<rect width="20" height="20" fill="white" transform="translate(-0.000244141)"/>
</clipPath>
</defs>
</svg>
