<svg width="24" height="24" viewBox="0 0 24 24" fill="none" xmlns="http://www.w3.org/2000/svg">
<path fill-rule="evenodd" clip-rule="evenodd" d="M18.2766 6.85311C18.511 6.92811 18.8719 7.27967 18.9703 7.53749C19.0828 7.83749 19.0735 8.22655 18.9422 8.49842C18.7922 8.80311 11.0766 16.4625 10.7297 16.6547C10.3922 16.8328 9.99845 16.8328 9.66095 16.65C9.46408 16.5469 5.91095 13.364 5.30626 12.75C5.0672 12.5109 4.95001 12.2203 4.9547 11.8828C4.96408 11.175 5.48439 10.6969 6.18751 10.7437C6.35626 10.7578 6.56251 10.8 6.6422 10.8469C6.76876 10.9078 9.13595 13.0406 9.9047 13.7766L10.125 13.9922L13.6313 10.4906C15.5578 8.56874 17.1985 6.96092 17.2828 6.91874C17.6063 6.75467 17.8969 6.73592 18.2766 6.85311Z" fill="#55965B"/>
</svg>
