<svg width="21" height="20" viewBox="0 0 21 20" fill="none" xmlns="http://www.w3.org/2000/svg">
<g clip-path="url(#clip0_188_2685)">
<path d="M10.2498 0.0664062C10.1833 0.0976562 9.82788 0.359375 9.44897 0.640625L8.76929 1.15234L9.63257 1.16406C10.1091 1.16797 10.8904 1.16797 11.3669 1.16406L12.2302 1.15234L11.5466 0.640625C11.1716 0.355469 10.8083 0.0976562 10.7419 0.0625C10.5896 -0.015625 10.3982 -0.015625 10.2498 0.0664062Z" fill="#323232" fill-opacity="0.5"/>
<path d="M3.18726 2.42578C3.09741 2.47266 3.00757 2.5625 2.96069 2.65625C2.88257 2.80469 2.88257 2.87891 2.88257 6.50391V10.1953L6.69116 12.0977L10.5037 14.0039L14.3083 12.0977L18.1169 10.1953V6.50391C18.1169 2.87891 18.1169 2.80469 18.0388 2.65625C17.988 2.55469 17.906 2.47266 17.8044 2.42188C17.6521 2.34375 17.5935 2.34375 10.4919 2.34375C3.44116 2.34766 3.32788 2.34766 3.18726 2.42578ZM14.2888 5.9375C14.4646 6.02734 14.6013 6.25 14.6013 6.44531C14.6013 6.64062 14.4646 6.86328 14.2888 6.95312C14.1404 7.03125 14.0662 7.03125 10.4958 7.03125H6.85913L6.70288 6.94531C6.30835 6.72266 6.30444 6.1875 6.69507 5.95312L6.84741 5.85938H10.4919C14.0662 5.85938 14.1404 5.85938 14.2888 5.9375ZM10.7732 8.28125C10.949 8.37109 11.0857 8.59375 11.0857 8.78906C11.0857 8.98438 10.949 9.20703 10.7732 9.29688C10.6248 9.37109 10.5466 9.375 8.73804 9.375C6.86304 9.375 6.85913 9.375 6.70288 9.28906C6.30835 9.06641 6.30444 8.53125 6.69507 8.29688L6.84741 8.20312H8.73413C10.5466 8.20312 10.6248 8.20703 10.7732 8.28125Z" fill="#323232" fill-opacity="0.5"/>
<path d="M1.15613 6.83594C0.78113 7.11328 0.605349 7.26562 0.56238 7.36328C0.507693 7.47266 0.49988 7.61719 0.507693 8.26172L0.519412 9.02734L1.11707 9.31641L1.71082 9.60547V8.02344C1.71082 7.15625 1.70691 6.44531 1.6991 6.44531C1.69519 6.44531 1.4491 6.62109 1.15613 6.83594Z" fill="#323232" fill-opacity="0.5"/>
<path d="M19.2888 8.02344C19.2888 8.89453 19.2966 9.60938 19.3083 9.60938C19.3201 9.60938 19.5935 9.47656 19.9138 9.31641L20.4998 9.02344V8.26172C20.4998 7.625 20.488 7.48047 20.4333 7.35937C20.3826 7.25781 20.2263 7.11719 19.8748 6.85937C19.6052 6.66016 19.363 6.48828 19.3396 6.46875C19.3005 6.44531 19.2888 6.76953 19.2888 8.02344Z" fill="#323232" fill-opacity="0.5"/>
<path d="M0.499756 14.9414C0.499756 19.375 0.503662 19.5391 0.573975 19.6797C0.616943 19.7656 0.710693 19.8594 0.804443 19.9141L0.960693 20H10.4958C19.9802 20 20.0349 20 20.1873 19.9219C20.2888 19.8711 20.3708 19.7891 20.4216 19.6875C20.4998 19.5352 20.4998 19.4688 20.4998 14.9414C20.4998 12.418 20.4841 10.3516 20.4685 10.3516C20.4529 10.3516 18.2341 11.4492 15.5427 12.793C11.6521 14.7344 10.6169 15.2344 10.4998 15.2344C10.3826 15.2344 9.35132 14.7344 5.4646 12.793C2.77319 11.4492 0.55835 10.3516 0.538818 10.3516C0.515381 10.3516 0.499756 12.0625 0.499756 14.9414Z" fill="#323232" fill-opacity="0.5"/>
</g>
<defs>
<clipPath id="clip0_188_2685">
<rect width="20" height="20" fill="white" transform="translate(0.499756)"/>
</clipPath>
</defs>
</svg>
