<svg width="21" height="20" viewBox="0 0 21 20" fill="none" xmlns="http://www.w3.org/2000/svg">
<g clip-path="url(#clip0_188_2689)">
<path d="M9.6015 0.0390625C7.67178 0.226562 5.89049 0.9375 4.32796 2.14062C3.56622 2.72656 2.57792 3.82812 2.0076 4.72656C1.7615 5.11328 1.28102 6.09766 1.10914 6.56641C0.917733 7.08984 0.710697 7.89453 0.609133 8.51562C0.488036 9.27734 0.488036 10.7227 0.609133 11.4844C0.784918 12.5625 1.06227 13.4297 1.53493 14.3945C2.05057 15.4453 2.58574 16.1914 3.44513 17.0547C4.30843 17.9141 5.05454 18.4492 6.10534 18.9648C7.0702 19.4375 7.93741 19.7148 9.01555 19.8906C9.77729 20.0117 11.2226 20.0117 11.9844 19.8906C13.0625 19.7148 13.9297 19.4375 14.8946 18.9648C15.9454 18.4492 16.6915 17.9141 17.5548 17.0547C18.4142 16.1914 18.9494 15.4453 19.465 14.3945C19.8087 13.6953 19.9806 13.2383 20.1681 12.5352C20.4142 11.5977 20.4728 11.0859 20.4728 10C20.4728 8.91406 20.4142 8.40234 20.1681 7.46484C19.9806 6.76172 19.8087 6.30469 19.465 5.60547C18.9494 4.55469 18.4142 3.80859 17.5548 2.94531C16.6915 2.08594 15.9454 1.55078 14.8946 1.03516C13.9336 0.5625 13.043 0.28125 12.0039 0.117188C11.4297 0.0273438 10.1484 -0.015625 9.6015 0.0390625ZM15.7305 5.71094C15.9259 5.77344 16.2266 6.06641 16.3087 6.28125C16.4024 6.53125 16.3946 6.85547 16.2852 7.08203C16.1602 7.33594 9.73041 13.7188 9.44134 13.8789C9.16009 14.0273 8.83196 14.0273 8.5507 13.875C8.38663 13.7891 5.42564 11.1367 4.92172 10.625C4.7225 10.4258 4.62484 10.1836 4.62875 9.90234C4.63656 9.3125 5.07016 8.91406 5.65611 8.95312C5.79674 8.96484 5.96862 9 6.03502 9.03906C6.1405 9.08984 8.11319 10.8672 8.75383 11.4805L8.93743 11.6602L11.8594 8.74219C13.4649 7.14062 14.8321 5.80078 14.9024 5.76562C15.1719 5.62891 15.4141 5.61328 15.7305 5.71094Z" fill="#323232" fill-opacity="0.5"/>
</g>
<defs>
<clipPath id="clip0_188_2689">
<rect width="20.0004" height="20" fill="white" transform="translate(0.499756)"/>
</clipPath>
</defs>
</svg>
