<svg width="21" height="20" viewBox="0 0 21 20" fill="none" xmlns="http://www.w3.org/2000/svg">
<path d="M9.62081 0.0588217C8.5544 0.222884 7.60128 0.730697 6.85518 1.52367C6.03487 2.39476 5.60909 3.40257 5.5505 4.6096C5.46846 6.2971 6.29659 7.91038 7.72628 8.84398C8.4294 9.30492 9.10518 9.53929 9.9255 9.6057C11.445 9.72288 12.7419 9.24632 13.7888 8.17992C14.6208 7.33616 15.0427 6.41429 15.1442 5.23851C15.2849 3.6682 14.6911 2.20726 13.5075 1.18382C12.7419 0.527572 12.0388 0.199447 11.0661 0.0588217C10.5974 -0.00758457 10.0505 -0.0114908 9.62081 0.0588217Z" fill="#323232" fill-opacity="0.5"/>
<path d="M6.07388 9.69152C4.30825 9.87902 3.08169 11.1446 2.51138 13.379C2.13247 14.8673 2.03481 16.6564 2.277 17.6368C2.47622 18.422 3.12856 19.2189 3.88247 19.6017C4.22231 19.7735 4.7106 19.9142 5.12075 19.961C5.36294 19.9923 7.20669 20.0001 10.734 19.9923L15.9879 19.9806L16.32 19.8868C17.5543 19.5509 18.3981 18.7228 18.7067 17.5587C18.8668 16.9532 18.8473 15.5079 18.6598 14.3673C18.2497 11.8282 17.2106 10.3048 15.5661 9.82824C15.1911 9.71886 14.5192 9.63683 14.32 9.67589C14.1286 9.71105 13.8629 9.85167 13.2614 10.2384C12.6208 10.6525 12.5309 10.6993 12.0504 10.879C11.4958 11.086 11.0387 11.1759 10.5036 11.1759C9.95669 11.1759 9.53481 11.0978 8.98013 10.9025C8.45669 10.715 8.43325 10.7032 7.61294 10.1837C7.18325 9.91027 6.86294 9.73449 6.73794 9.69933C6.51919 9.64464 6.51919 9.64464 6.07388 9.69152Z" fill="#323232" fill-opacity="0.5"/>
</svg>
