<svg width="963" height="970" viewBox="0 0 963 970" fill="none" xmlns="http://www.w3.org/2000/svg">
<g opacity="0.6">
<g filter="url(#filter0_f_188_2448)">
<path d="M589.311 495.292C503.298 525.404 490.093 682.868 488.378 711.964C488.199 715.011 488.746 717.933 490.09 720.673C504.075 749.194 592.753 915.71 730.202 856.339C866.345 797.533 893.548 629.836 828.336 545.746C765.992 465.352 684.167 462.085 589.311 495.292Z" fill="#A9AEF4"/>
</g>
<g filter="url(#filter1_f_188_2448)">
<path d="M599.28 481.106C543.653 495.972 472.812 624.376 483.47 655.368C483.925 656.69 484.701 657.747 485.597 658.82C508.511 686.278 589.155 789.114 670.936 753.994C759.724 715.864 775.067 607.988 777.666 576.784C778.123 571.296 776.019 566.096 771.963 562.371C748.022 540.38 660.151 464.838 599.28 481.106Z" fill="#FFFCF9" fill-opacity="0.5"/>
</g>
<g filter="url(#filter2_f_188_2448)">
<path d="M146.967 509.689C218.855 661.542 431.844 694.281 470.077 698.988C473.959 699.466 477.697 698.739 481.099 696.808C526.714 670.916 857.607 471.905 654.95 255.513C391.967 -25.2927 187.287 184.522 174.471 198.222C174.035 198.688 173.703 199.088 173.334 199.609C165.57 210.567 71.0651 349.359 146.967 509.689Z" fill="#9FC4FC"/>
</g>
<g filter="url(#filter3_f_188_2448)">
<path d="M217.039 534.811C296.885 682.919 474.176 659.509 591.103 637.889C593.587 637.43 595.822 636.576 597.899 635.14C624.008 617.107 802.763 481.919 607.645 283.427C470.812 144.228 357.745 196.261 343.11 203.916C342.005 204.494 341.172 205.084 340.248 205.921C323.199 221.353 140.062 392.024 217.039 534.811Z" fill="#FFFCF9" fill-opacity="0.5"/>
</g>
</g>
<defs>
<filter id="filter0_f_188_2448" x="388.345" y="375.465" width="573.81" height="593.572" filterUnits="userSpaceOnUse" color-interpolation-filters="sRGB">
<feFlood floodOpacity="0" result="BackgroundImageFix"/>
<feBlend mode="normal" in="SourceGraphic" in2="BackgroundImageFix" result="shape"/>
<feGaussianBlur stdDeviation="50" result="effect1_foregroundBlur_188_2448"/>
</filter>
<filter id="filter1_f_188_2448" x="382.396" y="378.83" width="495.332" height="482.391" filterUnits="userSpaceOnUse" color-interpolation-filters="sRGB">
<feFlood floodOpacity="0" result="BackgroundImageFix"/>
<feBlend mode="normal" in="SourceGraphic" in2="BackgroundImageFix" result="shape"/>
<feGaussianBlur stdDeviation="50" result="effect1_foregroundBlur_188_2448"/>
</filter>
<filter id="filter2_f_188_2448" x="17.6411" y="10.082" width="802.431" height="789.048" filterUnits="userSpaceOnUse" color-interpolation-filters="sRGB">
<feFlood floodOpacity="0" result="BackgroundImageFix"/>
<feBlend mode="normal" in="SourceGraphic" in2="BackgroundImageFix" result="shape"/>
<feGaussianBlur stdDeviation="50" result="effect1_foregroundBlur_188_2448"/>
</filter>
<filter id="filter3_f_188_2448" x="98.2356" y="88.0918" width="699.477" height="665.76" filterUnits="userSpaceOnUse" color-interpolation-filters="sRGB">
<feFlood floodOpacity="0" result="BackgroundImageFix"/>
<feBlend mode="normal" in="SourceGraphic" in2="BackgroundImageFix" result="shape"/>
<feGaussianBlur stdDeviation="50" result="effect1_foregroundBlur_188_2448"/>
</filter>
</defs>
</svg>
