<svg width="64" height="12" viewBox="0 0 64 12" fill="none" xmlns="http://www.w3.org/2000/svg">
<path d="M-2.5356e-07 6.34951C-2.20355e-07 7.08947 0.59985 7.68932 1.33981 7.68932L57.5845 7.68932L55.9007 8.76117C55.6693 8.90673 55.4458 9.04938 55.2407 9.18149C54.6473 9.56364 54.4863 10.355 54.8731 10.9454C55.257 11.5314 56.0363 11.7044 56.6297 11.332C58.8356 9.94776 63.7177 6.87487 63.9617 6.64078C64.1932 6.40777 63.4355 5.73204 60.0259 3.16893C58.8249 2.26231 57.7144 1.44349 56.9238 0.865382C56.2917 0.40316 55.4008 0.605721 55.0248 1.29261C54.7079 1.87134 54.8732 2.59543 55.4073 2.9828C55.7199 3.2095 56.0777 3.47041 56.4269 3.72816L58.1948 5.00971L1.33981 5.00971C0.599853 5.00971 -2.86764e-07 5.60956 -2.5356e-07 6.34951Z" fill="#323232" fill-opacity="0.5"/>
</svg>
