<svg width="24" height="24" viewBox="0 0 24 24" fill="none" xmlns="http://www.w3.org/2000/svg">
<path d="M4.3173 0.0516987C3.53448 0.206387 2.79855 0.876699 2.5173 1.68764L2.41417 1.99232L2.40011 11.8361C2.39073 18.9236 2.40011 21.7689 2.43761 21.9939C2.59698 22.9408 3.40792 23.7751 4.33605 23.9533C4.5423 23.9908 6.65636 24.0001 12.1407 23.9908C20.4939 23.9767 19.8048 24.0001 20.386 23.6673L20.6392 23.522L17.9767 20.8595L15.3095 18.1923L15.122 18.3095C14.5501 18.6658 13.7157 18.9845 13.0314 19.1064C12.5064 19.2001 11.4845 19.1954 10.9454 19.1017C8.6298 18.6892 6.70324 16.8751 6.17355 14.6017C5.84074 13.1814 6.01417 11.7658 6.67042 10.4814C7.70636 8.4517 9.7173 7.21889 12.0001 7.21889C16.5798 7.21889 19.4673 12.1595 17.2173 16.1439L17.0064 16.5142L19.3079 18.8158L21.6095 21.1173V14.1564V7.19545L18.0095 3.59545L14.4142 0.000137329L9.46886 0.00482368C6.75011 0.00951195 4.4298 0.0282612 4.3173 0.0516987Z" fill="#323232" fill-opacity="0.3"/>
<path d="M11.3485 9.65605C10.9923 9.73105 10.6782 9.84824 10.2891 10.0451C9.99852 10.1951 9.81571 10.3357 9.46415 10.6873C9.08446 11.067 8.98602 11.1982 8.79852 11.5779C8.51259 12.1592 8.42352 12.5482 8.42352 13.1951C8.41884 13.8092 8.50321 14.1982 8.76102 14.7373C9.17821 15.6232 9.92352 16.2842 10.8985 16.6264C11.2454 16.7436 11.3251 16.7529 12.0001 16.7529C12.6751 16.7529 12.7548 16.7436 13.1016 16.6264C14.0766 16.2842 14.822 15.6232 15.2391 14.7373C15.497 14.1982 15.5813 13.8092 15.5766 13.1951C15.5766 12.5482 15.4876 12.1592 15.2016 11.5779C15.0141 11.1982 14.9157 11.067 14.536 10.6873C14.0438 10.1998 13.6407 9.94668 13.0079 9.7498C12.6376 9.63262 11.7095 9.58105 11.3485 9.65605Z" fill="#323232" fill-opacity="0.3"/>
</svg>
