<svg width="24" height="24" viewBox="0 0 24 24" fill="none" xmlns="http://www.w3.org/2000/svg">
<g clip-path="url(#clip0_70_537)">
<path d="M6.29063 0.0890312C5.45156 0.295282 4.72969 0.871845 4.33125 1.65466C4.02656 2.24997 4.01719 2.32497 3.99375 4.25153L3.975 5.99997H3.21563C2.01094 5.99997 1.44844 6.19216 0.820313 6.82028C0.440625 7.19997 0.225 7.57497 0.09375 8.0906C0.0046875 8.43747 0 8.62028 0 12C0 15.3797 0.0046875 15.5625 0.09375 15.9093C0.225 16.425 0.440625 16.8 0.820313 17.1797C1.44844 17.8078 2.01094 18 3.21563 18H3.975L3.99375 19.7484C4.01719 21.6703 4.02656 21.7453 4.33125 22.35C4.62656 22.9359 5.1 23.4 5.69531 23.6906C6.35156 24.0093 6.12188 24 11.9766 24C16.5938 24 17.3016 23.9906 17.6156 23.925C18.5016 23.7468 19.2656 23.1562 19.6781 22.3312C19.9688 21.7547 19.9828 21.6609 20.0016 19.7437L20.025 18H20.7844C21.9938 18 22.5563 17.8078 23.1797 17.1797C23.5594 16.8 23.775 16.4203 23.9062 15.9093C23.9953 15.5625 24 15.3797 24 12C24 8.62028 23.9953 8.43747 23.9062 8.0906C23.775 7.57966 23.5594 7.19997 23.1797 6.82028C22.5563 6.19216 21.9938 5.99997 20.7844 5.99997H20.025L20.0016 4.25153C19.9828 2.32497 19.9688 2.24528 19.6641 1.64528C19.3688 1.06403 18.8766 0.581219 18.3047 0.304657C17.6391 -0.0140934 17.8828 -3.05176e-05 11.9672 0.00465775C7.0125 0.00465775 6.60938 0.0140324 6.29063 0.0890312ZM17.4281 2.10466C17.6531 2.22184 17.8359 2.41403 17.925 2.63434C17.9859 2.77966 18 3.07028 18 4.40622V5.99997H12H6V4.39216C6 2.62028 6.00938 2.56403 6.30938 2.29216C6.62813 2.00153 6.225 2.02028 11.9906 2.01559C17.0813 2.01559 17.2594 2.02028 17.4281 2.10466ZM18 18.0937C18 21.4734 18.0094 21.375 17.7281 21.675C17.6578 21.75 17.5172 21.8484 17.4141 21.8953C17.2359 21.9797 16.9875 21.9843 12.0094 21.9843C6.3 21.9843 6.61875 21.9984 6.30938 21.7125C6.23438 21.6422 6.13594 21.5015 6.08906 21.3984C6.00938 21.2203 6 21.0281 6 18.1031V15H12H18V18.0937Z" fill="#323232"/>
<path d="M8.48456 16.5516C8.41893 16.5797 8.31581 16.6453 8.25956 16.7016C7.89393 17.0391 7.94081 17.5687 8.35799 17.8781C8.48924 17.9766 8.51268 17.9766 12.0002 17.9766C15.4877 17.9766 15.5111 17.9766 15.6424 17.8781C16.1017 17.5359 16.1017 16.9641 15.6424 16.6219C15.5111 16.5234 15.4783 16.5234 12.0564 16.5141C9.82518 16.5094 8.55956 16.5234 8.48456 16.5516Z" fill="#323232"/>
<path d="M8.48456 19.5516C8.41893 19.5797 8.31581 19.6453 8.25956 19.7016C7.89393 20.0391 7.94081 20.5687 8.35799 20.8781C8.48924 20.9766 8.51268 20.9766 12.0002 20.9766C15.4877 20.9766 15.5111 20.9766 15.6424 20.8781C16.1017 20.5359 16.1017 19.9641 15.6424 19.6219C15.5111 19.5234 15.4783 19.5234 12.0564 19.5141C9.82518 19.5094 8.55956 19.5234 8.48456 19.5516Z" fill="#323232"/>
</g>
<defs>
<clipPath id="clip0_70_537">
<rect width="24" height="24" fill="white"/>
</clipPath>
</defs>
</svg>
