<svg width="24" height="24" viewBox="0 0 24 24" fill="none" xmlns="http://www.w3.org/2000/svg">
<g clip-path="url(#clip0_70_536)">
<path d="M13.7203 1.56074C13.4766 1.64043 13.2375 1.84199 13.1109 2.07637C13.0078 2.26855 13.0078 2.29668 12.9938 4.39199C12.9797 6.35137 12.975 6.51543 12.9 6.51543C12.8578 6.51543 12.5906 6.53887 12.3047 6.5623C8.50781 6.91855 5.05313 8.86387 2.76094 11.9295C1.45781 13.6732 0.628125 15.6514 0.239063 17.9529C0.0703125 18.9279 0.028125 19.5092 0.0234375 20.6482C0.0234375 21.8764 0.028125 21.9045 0.309375 22.1904C0.520313 22.3967 0.698438 22.467 1.0125 22.4717C1.35938 22.4717 1.65469 22.317 1.8375 22.0451C1.90313 21.9467 2.11875 21.6139 2.32031 21.3045C3.58125 19.3592 5.23594 17.7279 6.96094 16.7342C8.58281 15.7967 10.3359 15.3279 12.2109 15.3279H12.9797L12.9938 18.0326L13.0078 20.742L13.125 20.9529C13.1906 21.0654 13.3359 21.2248 13.4438 21.3045C13.6313 21.4311 13.6828 21.4451 14.0109 21.4451C14.3297 21.4451 14.3953 21.4311 14.5594 21.3186C14.6578 21.2482 16.7812 19.1482 19.275 16.6545C24.0563 11.8686 23.9953 11.9342 24 11.5076C24 11.0717 24.0609 11.1373 19.1906 6.27168C16.6641 3.75449 14.5313 1.66387 14.4516 1.62168C14.2406 1.51855 13.9313 1.49043 13.7203 1.56074Z" fill="#323232"/>
</g>
<defs>
<clipPath id="clip0_70_536">
<rect width="24" height="24" fill="white"/>
</clipPath>
</defs>
</svg>
