<svg width="20" height="20" viewBox="0 0 20 20" fill="none" xmlns="http://www.w3.org/2000/svg">
<path d="M9.1015 0.0390625C7.17178 0.226562 5.39049 0.9375 3.82796 2.14062C3.06622 2.72656 2.07792 3.82812 1.5076 4.72656C1.2615 5.11328 0.781021 6.09766 0.609143 6.56641C0.417733 7.08984 0.210697 7.89453 0.109133 8.51562C-0.0119635 9.27734 -0.0119635 10.7227 0.109133 11.4844C0.284918 12.5625 0.562267 13.4297 1.03493 14.3945C1.55057 15.4453 2.08574 16.1914 2.94513 17.0547C3.80843 17.9141 4.55454 18.4492 5.60534 18.9648C6.5702 19.4375 7.43741 19.7148 8.51555 19.8906C9.27729 20.0117 10.7226 20.0117 11.4844 19.8906C12.5625 19.7148 13.4297 19.4375 14.3946 18.9648C15.4454 18.4492 16.1915 17.9141 17.0548 17.0547C17.9142 16.1914 18.4494 15.4453 18.965 14.3945C19.3087 13.6953 19.4806 13.2383 19.6681 12.5352C19.9142 11.5977 19.9728 11.0859 19.9728 10C19.9728 8.91406 19.9142 8.40234 19.6681 7.46484C19.4806 6.76172 19.3087 6.30469 18.965 5.60547C18.4494 4.55469 17.9142 3.80859 17.0548 2.94531C16.1915 2.08594 15.4454 1.55078 14.3946 1.03516C13.4336 0.5625 12.543 0.28125 11.5039 0.117188C10.9297 0.0273438 9.64839 -0.015625 9.1015 0.0390625ZM15.2305 5.71094C15.4259 5.77344 15.7266 6.06641 15.8087 6.28125C15.9024 6.53125 15.8946 6.85547 15.7852 7.08203C15.6602 7.33594 9.23041 13.7188 8.94134 13.8789C8.66009 14.0273 8.33196 14.0273 8.0507 13.875C7.88663 13.7891 4.92564 11.1367 4.42172 10.625C4.2225 10.4258 4.12484 10.1836 4.12875 9.90234C4.13656 9.3125 4.57016 8.91406 5.15611 8.95312C5.29674 8.96484 5.46862 9 5.53502 9.03906C5.6405 9.08984 7.61319 10.8672 8.25383 11.4805L8.43743 11.6602L11.3594 8.74219C12.9649 7.14062 14.3321 5.80078 14.4024 5.76562C14.6719 5.62891 14.9141 5.61328 15.2305 5.71094Z" fill="#323232" fill-opacity="0.5"/>
</svg>
