<svg width="20" height="20" viewBox="0 0 20 20" fill="none" xmlns="http://www.w3.org/2000/svg">
<path d="M9.12081 0.0588217C8.0544 0.222884 7.10128 0.730697 6.35518 1.52367C5.53487 2.39476 5.10909 3.40257 5.0505 4.6096C4.96846 6.2971 5.79659 7.91038 7.22628 8.84398C7.9294 9.30492 8.60518 9.53929 9.4255 9.6057C10.945 9.72288 12.2419 9.24632 13.2888 8.17992C14.1208 7.33616 14.5427 6.41429 14.6442 5.23851C14.7849 3.6682 14.1911 2.20726 13.0075 1.18382C12.2419 0.527572 11.5388 0.199447 10.5661 0.0588217C10.0974 -0.00758457 9.5505 -0.0114908 9.12081 0.0588217Z" fill="#323232" fill-opacity="0.5"/>
<path d="M5.57388 9.69152C3.80825 9.87902 2.58169 11.1446 2.01138 13.379C1.63247 14.8673 1.53481 16.6564 1.777 17.6368C1.97622 18.422 2.62856 19.2189 3.38247 19.6017C3.72231 19.7735 4.2106 19.9142 4.62075 19.961C4.86294 19.9923 6.70669 20.0001 10.234 19.9923L15.4879 19.9806L15.82 19.8868C17.0543 19.5509 17.8981 18.7228 18.2067 17.5587C18.3668 16.9532 18.3473 15.5079 18.1598 14.3673C17.7497 11.8282 16.7106 10.3048 15.0661 9.82824C14.6911 9.71886 14.0192 9.63683 13.82 9.67589C13.6286 9.71105 13.3629 9.85167 12.7614 10.2384C12.1208 10.6525 12.0309 10.6993 11.5504 10.879C10.9958 11.086 10.5387 11.1759 10.0036 11.1759C9.45669 11.1759 9.03481 11.0978 8.48013 10.9025C7.95669 10.715 7.93325 10.7032 7.11294 10.1837C6.68325 9.91027 6.36294 9.73449 6.23794 9.69933C6.01919 9.64464 6.01919 9.64464 5.57388 9.69152Z" fill="#323232" fill-opacity="0.5"/>
</svg>
